<svg width="26" height="26" viewBox="0 0 26 26" fill="none" xmlns="http://www.w3.org/2000/svg">
<g clip-path="url(#clip0_169_213)">
<path d="M25.3568 11.9829C25.0015 5.36501 19.3487 0.288139 12.7308 0.643387C6.1129 0.998636 1.03603 6.65148 1.39128 13.2694C1.71233 19.2502 6.36034 23.9724 12.1371 24.5638L11.6877 16.1904L8.64516 16.3537L8.45923 12.89L11.5017 12.7266L11.36 10.0867C11.1988 7.08352 12.8987 5.32862 15.6358 5.18169C16.9464 5.11134 18.3307 5.27175 18.3307 5.27175L18.489 8.22063L16.978 8.30173C15.4896 8.38164 15.0748 9.33031 15.1257 10.2789L15.2463 12.5256L18.5697 12.3472L18.2243 15.8395L15.4323 15.9894L15.8818 24.3628C21.562 23.1564 25.6778 17.9637 25.3568 11.9829Z" fill="black"/>
</g>
<defs>
<clipPath id="clip0_169_213">
<rect width="24" height="24" fill="white" transform="translate(0.748047 1.28662) rotate(-3.07269)"/>
</clipPath>
</defs>
</svg>
