<svg width="28" height="30" viewBox="0 0 28 30" fill="none" xmlns="http://www.w3.org/2000/svg">
<g filter="url(#filter0_d_162_267)">
<path d="M20 21C21.6569 21 23 19.6569 23 18C23 16.3431 21.6569 15 20 15C18.3431 15 17 16.3431 17 18C17 19.6569 18.3431 21 20 21Z" stroke="#6DE754" stroke-width="2" stroke-linecap="round" stroke-linejoin="round"/>
<path d="M8 9C9.65685 9 11 7.65685 11 6C11 4.34315 9.65685 3 8 3C6.34315 3 5 4.34315 5 6C5 7.65685 6.34315 9 8 9Z" stroke="#6DE754" stroke-width="2" stroke-linecap="round" stroke-linejoin="round"/>
<path d="M15 6H18C18.5304 6 19.0391 6.21071 19.4142 6.58579C19.7893 6.96086 20 7.46957 20 8V15" stroke="#6DE754" stroke-width="2" stroke-linecap="round" stroke-linejoin="round"/>
<path d="M8 9V21" stroke="#6DE754" stroke-width="2" stroke-linecap="round" stroke-linejoin="round"/>
</g>
<defs>
<filter id="filter0_d_162_267" x="-2" y="0" width="32" height="32" filterUnits="userSpaceOnUse" color-interpolation-filters="sRGB">
<feFlood flood-opacity="0" result="BackgroundImageFix"/>
<feColorMatrix in="SourceAlpha" type="matrix" values="0 0 0 0 0 0 0 0 0 0 0 0 0 0 0 0 0 0 127 0" result="hardAlpha"/>
<feOffset dy="4"/>
<feGaussianBlur stdDeviation="2"/>
<feComposite in2="hardAlpha" operator="out"/>
<feColorMatrix type="matrix" values="0 0 0 0 0 0 0 0 0 0 0 0 0 0 0 0 0 0 0.25 0"/>
<feBlend mode="normal" in2="BackgroundImageFix" result="effect1_dropShadow_162_267"/>
<feBlend mode="normal" in="SourceGraphic" in2="effect1_dropShadow_162_267" result="shape"/>
</filter>
</defs>
</svg>
