<svg width="25" height="24" viewBox="0 0 25 24" fill="none" xmlns="http://www.w3.org/2000/svg">
<g clip-path="url(#clip0_169_215)">
<path d="M12.748 2.16094C15.9543 2.16094 16.334 2.175 17.5949 2.23125C18.7668 2.28281 19.3996 2.47969 19.8215 2.64375C20.3793 2.85938 20.7824 3.12188 21.1996 3.53906C21.6215 3.96094 21.8793 4.35938 22.0949 4.91719C22.259 5.33906 22.4559 5.97656 22.5074 7.14375C22.5637 8.40937 22.5777 8.78906 22.5777 11.9906C22.5777 15.1969 22.5637 15.5766 22.5074 16.8375C22.4559 18.0094 22.259 18.6422 22.0949 19.0641C21.8793 19.6219 21.6168 20.025 21.1996 20.4422C20.7777 20.8641 20.3793 21.1219 19.8215 21.3375C19.3996 21.5016 18.7621 21.6984 17.5949 21.75C16.3293 21.8062 15.9496 21.8203 12.748 21.8203C9.5418 21.8203 9.16211 21.8062 7.90117 21.75C6.7293 21.6984 6.09648 21.5016 5.67461 21.3375C5.1168 21.1219 4.71367 20.8594 4.29648 20.4422C3.87461 20.0203 3.6168 19.6219 3.40117 19.0641C3.23711 18.6422 3.04023 18.0047 2.98867 16.8375C2.93242 15.5719 2.91836 15.1922 2.91836 11.9906C2.91836 8.78438 2.93242 8.40469 2.98867 7.14375C3.04023 5.97187 3.23711 5.33906 3.40117 4.91719C3.6168 4.35938 3.8793 3.95625 4.29648 3.53906C4.71836 3.11719 5.1168 2.85938 5.67461 2.64375C6.09648 2.47969 6.73398 2.28281 7.90117 2.23125C9.16211 2.175 9.5418 2.16094 12.748 2.16094ZM12.748 0C9.49024 0 9.08242 0.0140625 7.80273 0.0703125C6.52773 0.126563 5.65117 0.332812 4.8918 0.628125C4.09961 0.9375 3.4293 1.34531 2.76367 2.01562C2.09336 2.68125 1.68555 3.35156 1.37617 4.13906C1.08086 4.90313 0.874609 5.775 0.818359 7.05C0.762109 8.33437 0.748047 8.74219 0.748047 12C0.748047 15.2578 0.762109 15.6656 0.818359 16.9453C0.874609 18.2203 1.08086 19.0969 1.37617 19.8563C1.68555 20.6484 2.09336 21.3188 2.76367 21.9844C3.4293 22.65 4.09961 23.0625 4.88711 23.3672C5.65117 23.6625 6.52305 23.8687 7.79805 23.925C9.07773 23.9812 9.48555 23.9953 12.7434 23.9953C16.0012 23.9953 16.409 23.9812 17.6887 23.925C18.9637 23.8687 19.8402 23.6625 20.5996 23.3672C21.3871 23.0625 22.0574 22.65 22.723 21.9844C23.3887 21.3188 23.8012 20.6484 24.1059 19.8609C24.4012 19.0969 24.6074 18.225 24.6637 16.95C24.7199 15.6703 24.734 15.2625 24.734 12.0047C24.734 8.74688 24.7199 8.33906 24.6637 7.05938C24.6074 5.78438 24.4012 4.90781 24.1059 4.14844C23.8105 3.35156 23.4027 2.68125 22.7324 2.01562C22.0668 1.35 21.3965 0.9375 20.609 0.632812C19.8449 0.3375 18.973 0.13125 17.698 0.075C16.4137 0.0140625 16.0059 0 12.748 0Z" fill="black"/>
<path d="M12.748 5.83594C9.34492 5.83594 6.58398 8.59688 6.58398 12C6.58398 15.4031 9.34492 18.1641 12.748 18.1641C16.1512 18.1641 18.9121 15.4031 18.9121 12C18.9121 8.59688 16.1512 5.83594 12.748 5.83594ZM12.748 15.9984C10.5402 15.9984 8.74961 14.2078 8.74961 12C8.74961 9.79219 10.5402 8.00156 12.748 8.00156C14.9559 8.00156 16.7465 9.79219 16.7465 12C16.7465 14.2078 14.9559 15.9984 12.748 15.9984Z" fill="black"/>
<path d="M20.5949 5.59238C20.5949 6.38926 19.948 7.03145 19.1559 7.03145C18.359 7.03145 17.7168 6.38457 17.7168 5.59238C17.7168 4.79551 18.3637 4.15332 19.1559 4.15332C19.948 4.15332 20.5949 4.8002 20.5949 5.59238Z" fill="black"/>
</g>
<defs>
<clipPath id="clip0_169_215">
<rect width="24" height="24" fill="white" transform="translate(0.748047)"/>
</clipPath>
</defs>
</svg>
